solid OpenSCAD_Model
  facet normal 1 -0 0
    outer loop
      vertex 8.5 10 3
      vertex 8.5 110 0
      vertex 8.5 110 3
    endloop
  endfacet
  facet normal 1 0 0
    outer loop
      vertex 8.5 110 0
      vertex 8.5 10 3
      vertex 8.5 10 0
    endloop
  endfacet
  facet normal 0 0 1
    outer loop
      vertex 8.5 110 3
      vertex 6.5 65 3
      vertex 8.5 10 3
    endloop
  endfacet
  facet normal 0 0 1
    outer loop
      vertex 8.5 110 3
      vertex 3.5 65 3
      vertex 6.5 65 3
    endloop
  endfacet
  facet normal 0 0 1
    outer loop
      vertex 3.5 65 3
      vertex 1.5 110 3
      vertex 3.5 55 3
    endloop
  endfacet
  facet normal -0 0 1
    outer loop
      vertex 1.5 110 3
      vertex 3.5 65 3
      vertex 8.5 110 3
    endloop
  endfacet
  facet normal -0 0 1
    outer loop
      vertex 6.5 55 3
      vertex 8.5 10 3
      vertex 6.5 65 3
    endloop
  endfacet
  facet normal -0 0 1
    outer loop
      vertex 3.5 55 3
      vertex 8.5 10 3
      vertex 6.5 55 3
    endloop
  endfacet
  facet normal 0 0 1
    outer loop
      vertex 3.5 55 3
      vertex 1.5 10 3
      vertex 8.5 10 3
    endloop
  endfacet
  facet normal 0 0 1
    outer loop
      vertex 1.5 10 3
      vertex 3.5 55 3
      vertex 1.5 110 3
    endloop
  endfacet
  facet normal 0 0 -1
    outer loop
      vertex 100 0 0
      vertex 98.5 10 0
      vertex 100 10 0
    endloop
  endfacet
  facet normal 0 0 -1
    outer loop
      vertex 98.5 10 0
      vertex 96.5 55 0
      vertex 98.5 110 0
    endloop
  endfacet
  facet normal 0 0 -1
    outer loop
      vertex 98.5 10 0
      vertex 93.5 55 0
      vertex 96.5 55 0
    endloop
  endfacet
  facet normal -0 0 -1
    outer loop
      vertex 93.5 55 0
      vertex 91.5 10 0
      vertex 93.5 65 0
    endloop
  endfacet
  facet normal 0 0 -1
    outer loop
      vertex 98.5 10 0
      vertex 91.5 10 0
      vertex 93.5 55 0
    endloop
  endfacet
  facet normal 0 0 -1
    outer loop
      vertex 100 0 0
      vertex 91.5 10 0
      vertex 98.5 10 0
    endloop
  endfacet
  facet normal 0 0 -1
    outer loop
      vertex 100 0 0
      vertex 88.5 10 0
      vertex 91.5 10 0
    endloop
  endfacet
  facet normal 0 0 -1
    outer loop
      vertex 88.5 10 0
      vertex 86.5 55 0
      vertex 88.5 110 0
    endloop
  endfacet
  facet normal 0 0 -1
    outer loop
      vertex 88.5 10 0
      vertex 83.5 55 0
      vertex 86.5 55 0
    endloop
  endfacet
  facet normal -0 0 -1
    outer loop
      vertex 83.5 55 0
      vertex 81.5 10 0
      vertex 83.5 65 0
    endloop
  endfacet
  facet normal 0 0 -1
    outer loop
      vertex 88.5 10 0
      vertex 81.5 10 0
      vertex 83.5 55 0
    endloop
  endfacet
  facet normal 0 0 -1
    outer loop
      vertex 100 0 0
      vertex 81.5 10 0
      vertex 88.5 10 0
    endloop
  endfacet
  facet normal 0 0 -1
    outer loop
      vertex 100 0 0
      vertex 78.5 10 0
      vertex 81.5 10 0
    endloop
  endfacet
  facet normal 0 0 -1
    outer loop
      vertex 78.5 10 0
      vertex 76.5 55 0
      vertex 78.5 110 0
    endloop
  endfacet
  facet normal 0 0 -1
    outer loop
      vertex 78.5 10 0
      vertex 73.5 55 0
      vertex 76.5 55 0
    endloop
  endfacet
  facet normal -0 0 -1
    outer loop
      vertex 73.5 55 0
      vertex 71.5 10 0
      vertex 73.5 65 0
    endloop
  endfacet
  facet normal 0 0 -1
    outer loop
      vertex 78.5 10 0
      vertex 71.5 10 0
      vertex 73.5 55 0
    endloop
  endfacet
  facet normal 0 0 -1
    outer loop
      vertex 100 0 0
      vertex 71.5 10 0
      vertex 78.5 10 0
    endloop
  endfacet
  facet normal 0 0 -1
    outer loop
      vertex 100 0 0
      vertex 68.5 10 0
      vertex 71.5 10 0
    endloop
  endfacet
  facet normal 0 0 -1
    outer loop
      vertex 68.5 10 0
      vertex 66.5 55 0
      vertex 68.5 110 0
    endloop
  endfacet
  facet normal 0 0 -1
    outer loop
      vertex 68.5 10 0
      vertex 63.5 55 0
      vertex 66.5 55 0
    endloop
  endfacet
  facet normal -0 0 -1
    outer loop
      vertex 63.5 55 0
      vertex 61.5 10 0
      vertex 63.5 65 0
    endloop
  endfacet
  facet normal 0 0 -1
    outer loop
      vertex 68.5 10 0
      vertex 61.5 10 0
      vertex 63.5 55 0
    endloop
  endfacet
  facet normal 0 0 -1
    outer loop
      vertex 100 0 0
      vertex 61.5 10 0
      vertex 68.5 10 0
    endloop
  endfacet
  facet normal 0 0 -1
    outer loop
      vertex 100 0 0
      vertex 58.5 10 0
      vertex 61.5 10 0
    endloop
  endfacet
  facet normal 0 0 -1
    outer loop
      vertex 58.5 10 0
      vertex 56.5 55 0
      vertex 58.5 110 0
    endloop
  endfacet
  facet normal 0 0 -1
    outer loop
      vertex 58.5 10 0
      vertex 53.5 55 0
      vertex 56.5 55 0
    endloop
  endfacet
  facet normal -0 0 -1
    outer loop
      vertex 53.5 55 0
      vertex 51.5 10 0
      vertex 53.5 65 0
    endloop
  endfacet
  facet normal 0 0 -1
    outer loop
      vertex 58.5 10 0
      vertex 51.5 10 0
      vertex 53.5 55 0
    endloop
  endfacet
  facet normal 0 0 -1
    outer loop
      vertex 100 0 0
      vertex 51.5 10 0
      vertex 58.5 10 0
    endloop
  endfacet
  facet normal 0 0 -1
    outer loop
      vertex 100 0 0
      vertex 48.5 10 0
      vertex 51.5 10 0
    endloop
  endfacet
  facet normal 0 0 -1
    outer loop
      vertex 48.5 10 0
      vertex 46.5 55 0
      vertex 48.5 110 0
    endloop
  endfacet
  facet normal 0 0 -1
    outer loop
      vertex 48.5 10 0
      vertex 43.5 55 0
      vertex 46.5 55 0
    endloop
  endfacet
  facet normal -0 0 -1
    outer loop
      vertex 43.5 55 0
      vertex 41.5 10 0
      vertex 43.5 65 0
    endloop
  endfacet
  facet normal 0 0 -1
    outer loop
      vertex 48.5 10 0
      vertex 41.5 10 0
      vertex 43.5 55 0
    endloop
  endfacet
  facet normal 0 0 -1
    outer loop
      vertex 0 0 0
      vertex 48.5 10 0
      vertex 100 0 0
    endloop
  endfacet
  facet normal -0 0 -1
    outer loop
      vertex 48.5 10 0
      vertex 0 0 0
      vertex 41.5 10 0
    endloop
  endfacet
  facet normal 0 0 -1
    outer loop
      vertex 38.5 10 0
      vertex 36.5 55 0
      vertex 38.5 110 0
    endloop
  endfacet
  facet normal 0 0 -1
    outer loop
      vertex 38.5 10 0
      vertex 33.5 55 0
      vertex 36.5 55 0
    endloop
  endfacet
  facet normal -0 0 -1
    outer loop
      vertex 33.5 55 0
      vertex 31.5 10 0
      vertex 33.5 65 0
    endloop
  endfacet
  facet normal 0 0 -1
    outer loop
      vertex 38.5 10 0
      vertex 31.5 10 0
      vertex 33.5 55 0
    endloop
  endfacet
  facet normal -0 0 -1
    outer loop
      vertex 41.5 10 0
      vertex 0 0 0
      vertex 38.5 10 0
    endloop
  endfacet
  facet normal -0 0 -1
    outer loop
      vertex 38.5 10 0
      vertex 0 0 0
      vertex 31.5 10 0
    endloop
  endfacet
  facet normal 0 0 -1
    outer loop
      vertex 28.5 10 0
      vertex 26.5 55 0
      vertex 28.5 110 0
    endloop
  endfacet
  facet normal 0 0 -1
    outer loop
      vertex 28.5 10 0
      vertex 23.5 55 0
      vertex 26.5 55 0
    endloop
  endfacet
  facet normal -0 0 -1
    outer loop
      vertex 23.5 55 0
      vertex 21.5 10 0
      vertex 23.5 65 0
    endloop
  endfacet
  facet normal 0 0 -1
    outer loop
      vertex 28.5 10 0
      vertex 21.5 10 0
      vertex 23.5 55 0
    endloop
  endfacet
  facet normal -0 0 -1
    outer loop
      vertex 31.5 10 0
      vertex 0 0 0
      vertex 28.5 10 0
    endloop
  endfacet
  facet normal -0 0 -1
    outer loop
      vertex 28.5 10 0
      vertex 0 0 0
      vertex 21.5 10 0
    endloop
  endfacet
  facet normal 0 0 -1
    outer loop
      vertex 18.5 10 0
      vertex 16.5 55 0
      vertex 18.5 110 0
    endloop
  endfacet
  facet normal 0 0 -1
    outer loop
      vertex 18.5 10 0
      vertex 13.5 55 0
      vertex 16.5 55 0
    endloop
  endfacet
  facet normal -0 0 -1
    outer loop
      vertex 13.5 55 0
      vertex 11.5 10 0
      vertex 13.5 65 0
    endloop
  endfacet
  facet normal 0 0 -1
    outer loop
      vertex 18.5 10 0
      vertex 11.5 10 0
      vertex 13.5 55 0
    endloop
  endfacet
  facet normal -0 0 -1
    outer loop
      vertex 21.5 10 0
      vertex 0 0 0
      vertex 18.5 10 0
    endloop
  endfacet
  facet normal -0 0 -1
    outer loop
      vertex 18.5 10 0
      vertex 0 0 0
      vertex 11.5 10 0
    endloop
  endfacet
  facet normal 0 0 -1
    outer loop
      vertex 8.5 10 0
      vertex 6.5 55 0
      vertex 8.5 110 0
    endloop
  endfacet
  facet normal 0 0 -1
    outer loop
      vertex 8.5 10 0
      vertex 3.5 55 0
      vertex 6.5 55 0
    endloop
  endfacet
  facet normal -0 0 -1
    outer loop
      vertex 3.5 55 0
      vertex 1.5 10 0
      vertex 3.5 65 0
    endloop
  endfacet
  facet normal 0 0 -1
    outer loop
      vertex 8.5 10 0
      vertex 1.5 10 0
      vertex 3.5 55 0
    endloop
  endfacet
  facet normal -0 0 -1
    outer loop
      vertex 11.5 10 0
      vertex 0 0 0
      vertex 8.5 10 0
    endloop
  endfacet
  facet normal -0 0 -1
    outer loop
      vertex 8.5 10 0
      vertex 0 0 0
      vertex 1.5 10 0
    endloop
  endfacet
  facet normal -0 0 -1
    outer loop
      vertex 1.5 10 0
      vertex 0 0 0
      vertex 0 10 0
    endloop
  endfacet
  facet normal 0 0 -1
    outer loop
      vertex 98.5 110 0
      vertex 100 120 0
      vertex 100 110 0
    endloop
  endfacet
  facet normal 0 0 -1
    outer loop
      vertex 96.5 65 0
      vertex 98.5 110 0
      vertex 96.5 55 0
    endloop
  endfacet
  facet normal 0 0 -1
    outer loop
      vertex 93.5 65 0
      vertex 98.5 110 0
      vertex 96.5 65 0
    endloop
  endfacet
  facet normal 0 0 -1
    outer loop
      vertex 91.5 110 0
      vertex 93.5 65 0
      vertex 91.5 10 0
    endloop
  endfacet
  facet normal 0 0 -1
    outer loop
      vertex 91.5 110 0
      vertex 98.5 110 0
      vertex 93.5 65 0
    endloop
  endfacet
  facet normal 0 0 -1
    outer loop
      vertex 91.5 110 0
      vertex 100 120 0
      vertex 98.5 110 0
    endloop
  endfacet
  facet normal 0 0 -1
    outer loop
      vertex 88.5 110 0
      vertex 100 120 0
      vertex 91.5 110 0
    endloop
  endfacet
  facet normal 0 0 -1
    outer loop
      vertex 86.5 65 0
      vertex 88.5 110 0
      vertex 86.5 55 0
    endloop
  endfacet
  facet normal 0 0 -1
    outer loop
      vertex 83.5 65 0
      vertex 88.5 110 0
      vertex 86.5 65 0
    endloop
  endfacet
  facet normal 0 0 -1
    outer loop
      vertex 81.5 110 0
      vertex 83.5 65 0
      vertex 81.5 10 0
    endloop
  endfacet
  facet normal 0 0 -1
    outer loop
      vertex 81.5 110 0
      vertex 88.5 110 0
      vertex 83.5 65 0
    endloop
  endfacet
  facet normal 0 0 -1
    outer loop
      vertex 81.5 110 0
      vertex 100 120 0
      vertex 88.5 110 0
    endloop
  endfacet
  facet normal 0 0 -1
    outer loop
      vertex 78.5 110 0
      vertex 100 120 0
      vertex 81.5 110 0
    endloop
  endfacet
  facet normal 0 0 -1
    outer loop
      vertex 76.5 65 0
      vertex 78.5 110 0
      vertex 76.5 55 0
    endloop
  endfacet
  facet normal 0 0 -1
    outer loop
      vertex 73.5 65 0
      vertex 78.5 110 0
      vertex 76.5 65 0
    endloop
  endfacet
  facet normal 0 0 -1
    outer loop
      vertex 71.5 110 0
      vertex 73.5 65 0
      vertex 71.5 10 0
    endloop
  endfacet
  facet normal 0 0 -1
    outer loop
      vertex 71.5 110 0
      vertex 78.5 110 0
      vertex 73.5 65 0
    endloop
  endfacet
  facet normal 0 0 -1
    outer loop
      vertex 71.5 110 0
      vertex 100 120 0
      vertex 78.5 110 0
    endloop
  endfacet
  facet normal 0 0 -1
    outer loop
      vertex 68.5 110 0
      vertex 100 120 0
      vertex 71.5 110 0
    endloop
  endfacet
  facet normal 0 0 -1
    outer loop
      vertex 66.5 65 0
      vertex 68.5 110 0
      vertex 66.5 55 0
    endloop
  endfacet
  facet normal 0 0 -1
    outer loop
      vertex 63.5 65 0
      vertex 68.5 110 0
      vertex 66.5 65 0
    endloop
  endfacet
  facet normal 0 0 -1
    outer loop
      vertex 61.5 110 0
      vertex 63.5 65 0
      vertex 61.5 10 0
    endloop
  endfacet
  facet normal 0 0 -1
    outer loop
      vertex 61.5 110 0
      vertex 68.5 110 0
      vertex 63.5 65 0
    endloop
  endfacet
  facet normal 0 0 -1
    outer loop
      vertex 61.5 110 0
      vertex 100 120 0
      vertex 68.5 110 0
    endloop
  endfacet
  facet normal 0 0 -1
    outer loop
      vertex 58.5 110 0
      vertex 100 120 0
      vertex 61.5 110 0
    endloop
  endfacet
  facet normal 0 0 -1
    outer loop
      vertex 56.5 65 0
      vertex 58.5 110 0
      vertex 56.5 55 0
    endloop
  endfacet
  facet normal 0 0 -1
    outer loop
      vertex 53.5 65 0
      vertex 58.5 110 0
      vertex 56.5 65 0
    endloop
  endfacet
  facet normal 0 0 -1
    outer loop
      vertex 51.5 110 0
      vertex 53.5 65 0
      vertex 51.5 10 0
    endloop
  endfacet
  facet normal 0 0 -1
    outer loop
      vertex 51.5 110 0
      vertex 58.5 110 0
      vertex 53.5 65 0
    endloop
  endfacet
  facet normal 0 0 -1
    outer loop
      vertex 51.5 110 0
      vertex 100 120 0
      vertex 58.5 110 0
    endloop
  endfacet
  facet normal 0 0 -1
    outer loop
      vertex 48.5 110 0
      vertex 100 120 0
      vertex 51.5 110 0
    endloop
  endfacet
  facet normal 0 0 -1
    outer loop
      vertex 46.5 65 0
      vertex 48.5 110 0
      vertex 46.5 55 0
    endloop
  endfacet
  facet normal 0 0 -1
    outer loop
      vertex 43.5 65 0
      vertex 48.5 110 0
      vertex 46.5 65 0
    endloop
  endfacet
  facet normal 0 0 -1
    outer loop
      vertex 41.5 110 0
      vertex 43.5 65 0
      vertex 41.5 10 0
    endloop
  endfacet
  facet normal 0 0 -1
    outer loop
      vertex 41.5 110 0
      vertex 48.5 110 0
      vertex 43.5 65 0
    endloop
  endfacet
  facet normal 0 0 -1
    outer loop
      vertex 0 120 0
      vertex 48.5 110 0
      vertex 41.5 110 0
    endloop
  endfacet
  facet normal 0 0 -1
    outer loop
      vertex 0 120 0
      vertex 41.5 110 0
      vertex 38.5 110 0
    endloop
  endfacet
  facet normal 0 0 -1
    outer loop
      vertex 36.5 65 0
      vertex 38.5 110 0
      vertex 36.5 55 0
    endloop
  endfacet
  facet normal 0 0 -1
    outer loop
      vertex 33.5 65 0
      vertex 38.5 110 0
      vertex 36.5 65 0
    endloop
  endfacet
  facet normal 0 0 -1
    outer loop
      vertex 31.5 110 0
      vertex 33.5 65 0
      vertex 31.5 10 0
    endloop
  endfacet
  facet normal 0 0 -1
    outer loop
      vertex 31.5 110 0
      vertex 38.5 110 0
      vertex 33.5 65 0
    endloop
  endfacet
  facet normal 0 0 -1
    outer loop
      vertex 0 120 0
      vertex 38.5 110 0
      vertex 31.5 110 0
    endloop
  endfacet
  facet normal 0 0 -1
    outer loop
      vertex 0 120 0
      vertex 31.5 110 0
      vertex 28.5 110 0
    endloop
  endfacet
  facet normal 0 0 -1
    outer loop
      vertex 26.5 65 0
      vertex 28.5 110 0
      vertex 26.5 55 0
    endloop
  endfacet
  facet normal 0 0 -1
    outer loop
      vertex 23.5 65 0
      vertex 28.5 110 0
      vertex 26.5 65 0
    endloop
  endfacet
  facet normal 0 0 -1
    outer loop
      vertex 21.5 110 0
      vertex 23.5 65 0
      vertex 21.5 10 0
    endloop
  endfacet
  facet normal 0 0 -1
    outer loop
      vertex 21.5 110 0
      vertex 28.5 110 0
      vertex 23.5 65 0
    endloop
  endfacet
  facet normal 0 0 -1
    outer loop
      vertex 0 120 0
      vertex 28.5 110 0
      vertex 21.5 110 0
    endloop
  endfacet
  facet normal 0 0 -1
    outer loop
      vertex 0 120 0
      vertex 21.5 110 0
      vertex 18.5 110 0
    endloop
  endfacet
  facet normal 0 0 -1
    outer loop
      vertex 16.5 65 0
      vertex 18.5 110 0
      vertex 16.5 55 0
    endloop
  endfacet
  facet normal 0 0 -1
    outer loop
      vertex 13.5 65 0
      vertex 18.5 110 0
      vertex 16.5 65 0
    endloop
  endfacet
  facet normal 0 0 -1
    outer loop
      vertex 11.5 110 0
      vertex 13.5 65 0
      vertex 11.5 10 0
    endloop
  endfacet
  facet normal 0 0 -1
    outer loop
      vertex 11.5 110 0
      vertex 18.5 110 0
      vertex 13.5 65 0
    endloop
  endfacet
  facet normal 0 0 -1
    outer loop
      vertex 0 120 0
      vertex 18.5 110 0
      vertex 11.5 110 0
    endloop
  endfacet
  facet normal 0 0 -1
    outer loop
      vertex 0 120 0
      vertex 11.5 110 0
      vertex 8.5 110 0
    endloop
  endfacet
  facet normal 0 0 -1
    outer loop
      vertex 6.5 65 0
      vertex 8.5 110 0
      vertex 6.5 55 0
    endloop
  endfacet
  facet normal 0 0 -1
    outer loop
      vertex 3.5 65 0
      vertex 8.5 110 0
      vertex 6.5 65 0
    endloop
  endfacet
  facet normal 0 0 -1
    outer loop
      vertex 1.5 110 0
      vertex 3.5 65 0
      vertex 1.5 10 0
    endloop
  endfacet
  facet normal 0 0 -1
    outer loop
      vertex 1.5 110 0
      vertex 8.5 110 0
      vertex 3.5 65 0
    endloop
  endfacet
  facet normal 0 0 -1
    outer loop
      vertex 0 120 0
      vertex 8.5 110 0
      vertex 1.5 110 0
    endloop
  endfacet
  facet normal 0 0 -1
    outer loop
      vertex 0 120 0
      vertex 1.5 110 0
      vertex 0 110 0
    endloop
  endfacet
  facet normal 0 0 -1
    outer loop
      vertex 48.5 110 0
      vertex 0 120 0
      vertex 100 120 0
    endloop
  endfacet
  facet normal -1 0 0
    outer loop
      vertex 1.5 10 0
      vertex 1.5 110 3
      vertex 1.5 110 0
    endloop
  endfacet
  facet normal -1 -0 0
    outer loop
      vertex 1.5 110 3
      vertex 1.5 10 0
      vertex 1.5 10 3
    endloop
  endfacet
  facet normal 0 1 -0
    outer loop
      vertex 100 120 0
      vertex 0 120 5
      vertex 100 120 5
    endloop
  endfacet
  facet normal 0 1 0
    outer loop
      vertex 0 120 5
      vertex 100 120 0
      vertex 0 120 0
    endloop
  endfacet
  facet normal 0 -1 0
    outer loop
      vertex 0 0 0
      vertex 100 0 5
      vertex 0 0 5
    endloop
  endfacet
  facet normal 0 -1 -0
    outer loop
      vertex 100 0 5
      vertex 0 0 0
      vertex 100 0 0
    endloop
  endfacet
  facet normal -1 0 0
    outer loop
      vertex 6.5 55 0
      vertex 6.5 65 3
      vertex 6.5 65 0
    endloop
  endfacet
  facet normal -1 -0 0
    outer loop
      vertex 6.5 65 3
      vertex 6.5 55 0
      vertex 6.5 55 3
    endloop
  endfacet
  facet normal 1 -0 0
    outer loop
      vertex 3.5 55 3
      vertex 3.5 65 0
      vertex 3.5 65 3
    endloop
  endfacet
  facet normal 1 0 0
    outer loop
      vertex 3.5 65 0
      vertex 3.5 55 3
      vertex 3.5 55 0
    endloop
  endfacet
  facet normal 0 -1 0
    outer loop
      vertex 3.5 65 0
      vertex 6.5 65 3
      vertex 3.5 65 3
    endloop
  endfacet
  facet normal 0 -1 -0
    outer loop
      vertex 6.5 65 3
      vertex 3.5 65 0
      vertex 6.5 65 0
    endloop
  endfacet
  facet normal 0 1 -0
    outer loop
      vertex 6.5 55 0
      vertex 3.5 55 3
      vertex 6.5 55 3
    endloop
  endfacet
  facet normal 0 1 0
    outer loop
      vertex 3.5 55 3
      vertex 6.5 55 0
      vertex 3.5 55 0
    endloop
  endfacet
  facet normal 1 -0 0
    outer loop
      vertex 18.5 10 3
      vertex 18.5 110 0
      vertex 18.5 110 3
    endloop
  endfacet
  facet normal 1 0 0
    outer loop
      vertex 18.5 110 0
      vertex 18.5 10 3
      vertex 18.5 10 0
    endloop
  endfacet
  facet normal 0 0 1
    outer loop
      vertex 18.5 110 3
      vertex 16.5 65 3
      vertex 18.5 10 3
    endloop
  endfacet
  facet normal 0 0 1
    outer loop
      vertex 18.5 110 3
      vertex 13.5 65 3
      vertex 16.5 65 3
    endloop
  endfacet
  facet normal 0 0 1
    outer loop
      vertex 13.5 65 3
      vertex 11.5 110 3
      vertex 13.5 55 3
    endloop
  endfacet
  facet normal -0 0 1
    outer loop
      vertex 11.5 110 3
      vertex 13.5 65 3
      vertex 18.5 110 3
    endloop
  endfacet
  facet normal -0 0 1
    outer loop
      vertex 16.5 55 3
      vertex 18.5 10 3
      vertex 16.5 65 3
    endloop
  endfacet
  facet normal -0 0 1
    outer loop
      vertex 13.5 55 3
      vertex 18.5 10 3
      vertex 16.5 55 3
    endloop
  endfacet
  facet normal 0 0 1
    outer loop
      vertex 13.5 55 3
      vertex 11.5 10 3
      vertex 18.5 10 3
    endloop
  endfacet
  facet normal 0 0 1
    outer loop
      vertex 11.5 10 3
      vertex 13.5 55 3
      vertex 11.5 110 3
    endloop
  endfacet
  facet normal -1 0 0
    outer loop
      vertex 11.5 10 0
      vertex 11.5 110 3
      vertex 11.5 110 0
    endloop
  endfacet
  facet normal -1 -0 0
    outer loop
      vertex 11.5 110 3
      vertex 11.5 10 0
      vertex 11.5 10 3
    endloop
  endfacet
  facet normal -1 0 0
    outer loop
      vertex 16.5 55 0
      vertex 16.5 65 3
      vertex 16.5 65 0
    endloop
  endfacet
  facet normal -1 -0 0
    outer loop
      vertex 16.5 65 3
      vertex 16.5 55 0
      vertex 16.5 55 3
    endloop
  endfacet
  facet normal 1 -0 0
    outer loop
      vertex 13.5 55 3
      vertex 13.5 65 0
      vertex 13.5 65 3
    endloop
  endfacet
  facet normal 1 0 0
    outer loop
      vertex 13.5 65 0
      vertex 13.5 55 3
      vertex 13.5 55 0
    endloop
  endfacet
  facet normal 0 -1 0
    outer loop
      vertex 13.5 65 0
      vertex 16.5 65 3
      vertex 13.5 65 3
    endloop
  endfacet
  facet normal 0 -1 -0
    outer loop
      vertex 16.5 65 3
      vertex 13.5 65 0
      vertex 16.5 65 0
    endloop
  endfacet
  facet normal 0 1 -0
    outer loop
      vertex 16.5 55 0
      vertex 13.5 55 3
      vertex 16.5 55 3
    endloop
  endfacet
  facet normal 0 1 0
    outer loop
      vertex 13.5 55 3
      vertex 16.5 55 0
      vertex 13.5 55 0
    endloop
  endfacet
  facet normal 1 -0 0
    outer loop
      vertex 28.5 10 3
      vertex 28.5 110 0
      vertex 28.5 110 3
    endloop
  endfacet
  facet normal 1 0 0
    outer loop
      vertex 28.5 110 0
      vertex 28.5 10 3
      vertex 28.5 10 0
    endloop
  endfacet
  facet normal 0 0 1
    outer loop
      vertex 28.5 110 3
      vertex 26.5 65 3
      vertex 28.5 10 3
    endloop
  endfacet
  facet normal 0 0 1
    outer loop
      vertex 28.5 110 3
      vertex 23.5 65 3
      vertex 26.5 65 3
    endloop
  endfacet
  facet normal 0 0 1
    outer loop
      vertex 23.5 65 3
      vertex 21.5 110 3
      vertex 23.5 55 3
    endloop
  endfacet
  facet normal -0 0 1
    outer loop
      vertex 21.5 110 3
      vertex 23.5 65 3
      vertex 28.5 110 3
    endloop
  endfacet
  facet normal -0 0 1
    outer loop
      vertex 26.5 55 3
      vertex 28.5 10 3
      vertex 26.5 65 3
    endloop
  endfacet
  facet normal -0 0 1
    outer loop
      vertex 23.5 55 3
      vertex 28.5 10 3
      vertex 26.5 55 3
    endloop
  endfacet
  facet normal 0 0 1
    outer loop
      vertex 23.5 55 3
      vertex 21.5 10 3
      vertex 28.5 10 3
    endloop
  endfacet
  facet normal 0 0 1
    outer loop
      vertex 21.5 10 3
      vertex 23.5 55 3
      vertex 21.5 110 3
    endloop
  endfacet
  facet normal -1 0 0
    outer loop
      vertex 21.5 10 0
      vertex 21.5 110 3
      vertex 21.5 110 0
    endloop
  endfacet
  facet normal -1 -0 0
    outer loop
      vertex 21.5 110 3
      vertex 21.5 10 0
      vertex 21.5 10 3
    endloop
  endfacet
  facet normal -1 0 0
    outer loop
      vertex 26.5 55 0
      vertex 26.5 65 3
      vertex 26.5 65 0
    endloop
  endfacet
  facet normal -1 -0 0
    outer loop
      vertex 26.5 65 3
      vertex 26.5 55 0
      vertex 26.5 55 3
    endloop
  endfacet
  facet normal 1 -0 0
    outer loop
      vertex 23.5 55 3
      vertex 23.5 65 0
      vertex 23.5 65 3
    endloop
  endfacet
  facet normal 1 0 0
    outer loop
      vertex 23.5 65 0
      vertex 23.5 55 3
      vertex 23.5 55 0
    endloop
  endfacet
  facet normal 0 -1 0
    outer loop
      vertex 23.5 65 0
      vertex 26.5 65 3
      vertex 23.5 65 3
    endloop
  endfacet
  facet normal 0 -1 -0
    outer loop
      vertex 26.5 65 3
      vertex 23.5 65 0
      vertex 26.5 65 0
    endloop
  endfacet
  facet normal 0 1 -0
    outer loop
      vertex 26.5 55 0
      vertex 23.5 55 3
      vertex 26.5 55 3
    endloop
  endfacet
  facet normal 0 1 0
    outer loop
      vertex 23.5 55 3
      vertex 26.5 55 0
      vertex 23.5 55 0
    endloop
  endfacet
  facet normal 1 -0 0
    outer loop
      vertex 38.5 10 3
      vertex 38.5 110 0
      vertex 38.5 110 3
    endloop
  endfacet
  facet normal 1 0 0
    outer loop
      vertex 38.5 110 0
      vertex 38.5 10 3
      vertex 38.5 10 0
    endloop
  endfacet
  facet normal 0 0 1
    outer loop
      vertex 38.5 110 3
      vertex 36.5 65 3
      vertex 38.5 10 3
    endloop
  endfacet
  facet normal 0 0 1
    outer loop
      vertex 38.5 110 3
      vertex 33.5 65 3
      vertex 36.5 65 3
    endloop
  endfacet
  facet normal 0 0 1
    outer loop
      vertex 33.5 65 3
      vertex 31.5 110 3
      vertex 33.5 55 3
    endloop
  endfacet
  facet normal -0 0 1
    outer loop
      vertex 31.5 110 3
      vertex 33.5 65 3
      vertex 38.5 110 3
    endloop
  endfacet
  facet normal -0 0 1
    outer loop
      vertex 36.5 55 3
      vertex 38.5 10 3
      vertex 36.5 65 3
    endloop
  endfacet
  facet normal -0 0 1
    outer loop
      vertex 33.5 55 3
      vertex 38.5 10 3
      vertex 36.5 55 3
    endloop
  endfacet
  facet normal 0 0 1
    outer loop
      vertex 33.5 55 3
      vertex 31.5 10 3
      vertex 38.5 10 3
    endloop
  endfacet
  facet normal 0 0 1
    outer loop
      vertex 31.5 10 3
      vertex 33.5 55 3
      vertex 31.5 110 3
    endloop
  endfacet
  facet normal -1 0 0
    outer loop
      vertex 31.5 10 0
      vertex 31.5 110 3
      vertex 31.5 110 0
    endloop
  endfacet
  facet normal -1 -0 0
    outer loop
      vertex 31.5 110 3
      vertex 31.5 10 0
      vertex 31.5 10 3
    endloop
  endfacet
  facet normal -1 0 0
    outer loop
      vertex 36.5 55 0
      vertex 36.5 65 3
      vertex 36.5 65 0
    endloop
  endfacet
  facet normal -1 -0 0
    outer loop
      vertex 36.5 65 3
      vertex 36.5 55 0
      vertex 36.5 55 3
    endloop
  endfacet
  facet normal 1 -0 0
    outer loop
      vertex 33.5 55 3
      vertex 33.5 65 0
      vertex 33.5 65 3
    endloop
  endfacet
  facet normal 1 0 0
    outer loop
      vertex 33.5 65 0
      vertex 33.5 55 3
      vertex 33.5 55 0
    endloop
  endfacet
  facet normal 0 -1 0
    outer loop
      vertex 33.5 65 0
      vertex 36.5 65 3
      vertex 33.5 65 3
    endloop
  endfacet
  facet normal 0 -1 -0
    outer loop
      vertex 36.5 65 3
      vertex 33.5 65 0
      vertex 36.5 65 0
    endloop
  endfacet
  facet normal 0 1 -0
    outer loop
      vertex 36.5 55 0
      vertex 33.5 55 3
      vertex 36.5 55 3
    endloop
  endfacet
  facet normal 0 1 0
    outer loop
      vertex 33.5 55 3
      vertex 36.5 55 0
      vertex 33.5 55 0
    endloop
  endfacet
  facet normal 1 -0 0
    outer loop
      vertex 48.5 10 3
      vertex 48.5 110 0
      vertex 48.5 110 3
    endloop
  endfacet
  facet normal 1 0 0
    outer loop
      vertex 48.5 110 0
      vertex 48.5 10 3
      vertex 48.5 10 0
    endloop
  endfacet
  facet normal 0 0 1
    outer loop
      vertex 48.5 110 3
      vertex 46.5 65 3
      vertex 48.5 10 3
    endloop
  endfacet
  facet normal 0 0 1
    outer loop
      vertex 48.5 110 3
      vertex 43.5 65 3
      vertex 46.5 65 3
    endloop
  endfacet
  facet normal 0 0 1
    outer loop
      vertex 43.5 65 3
      vertex 41.5 110 3
      vertex 43.5 55 3
    endloop
  endfacet
  facet normal -0 0 1
    outer loop
      vertex 41.5 110 3
      vertex 43.5 65 3
      vertex 48.5 110 3
    endloop
  endfacet
  facet normal -0 0 1
    outer loop
      vertex 46.5 55 3
      vertex 48.5 10 3
      vertex 46.5 65 3
    endloop
  endfacet
  facet normal -0 0 1
    outer loop
      vertex 43.5 55 3
      vertex 48.5 10 3
      vertex 46.5 55 3
    endloop
  endfacet
  facet normal 0 0 1
    outer loop
      vertex 43.5 55 3
      vertex 41.5 10 3
      vertex 48.5 10 3
    endloop
  endfacet
  facet normal 0 0 1
    outer loop
      vertex 41.5 10 3
      vertex 43.5 55 3
      vertex 41.5 110 3
    endloop
  endfacet
  facet normal -1 0 0
    outer loop
      vertex 41.5 10 0
      vertex 41.5 110 3
      vertex 41.5 110 0
    endloop
  endfacet
  facet normal -1 -0 0
    outer loop
      vertex 41.5 110 3
      vertex 41.5 10 0
      vertex 41.5 10 3
    endloop
  endfacet
  facet normal -1 0 0
    outer loop
      vertex 46.5 55 0
      vertex 46.5 65 3
      vertex 46.5 65 0
    endloop
  endfacet
  facet normal -1 -0 0
    outer loop
      vertex 46.5 65 3
      vertex 46.5 55 0
      vertex 46.5 55 3
    endloop
  endfacet
  facet normal 1 -0 0
    outer loop
      vertex 43.5 55 3
      vertex 43.5 65 0
      vertex 43.5 65 3
    endloop
  endfacet
  facet normal 1 0 0
    outer loop
      vertex 43.5 65 0
      vertex 43.5 55 3
      vertex 43.5 55 0
    endloop
  endfacet
  facet normal 0 -1 0
    outer loop
      vertex 43.5 65 0
      vertex 46.5 65 3
      vertex 43.5 65 3
    endloop
  endfacet
  facet normal 0 -1 -0
    outer loop
      vertex 46.5 65 3
      vertex 43.5 65 0
      vertex 46.5 65 0
    endloop
  endfacet
  facet normal 0 1 -0
    outer loop
      vertex 46.5 55 0
      vertex 43.5 55 3
      vertex 46.5 55 3
    endloop
  endfacet
  facet normal 0 1 0
    outer loop
      vertex 43.5 55 3
      vertex 46.5 55 0
      vertex 43.5 55 0
    endloop
  endfacet
  facet normal 1 -0 0
    outer loop
      vertex 58.5 10 3
      vertex 58.5 110 0
      vertex 58.5 110 3
    endloop
  endfacet
  facet normal 1 0 0
    outer loop
      vertex 58.5 110 0
      vertex 58.5 10 3
      vertex 58.5 10 0
    endloop
  endfacet
  facet normal 0 0 1
    outer loop
      vertex 58.5 110 3
      vertex 56.5 65 3
      vertex 58.5 10 3
    endloop
  endfacet
  facet normal 0 0 1
    outer loop
      vertex 58.5 110 3
      vertex 53.5 65 3
      vertex 56.5 65 3
    endloop
  endfacet
  facet normal 0 0 1
    outer loop
      vertex 53.5 65 3
      vertex 51.5 110 3
      vertex 53.5 55 3
    endloop
  endfacet
  facet normal -0 0 1
    outer loop
      vertex 51.5 110 3
      vertex 53.5 65 3
      vertex 58.5 110 3
    endloop
  endfacet
  facet normal -0 0 1
    outer loop
      vertex 56.5 55 3
      vertex 58.5 10 3
      vertex 56.5 65 3
    endloop
  endfacet
  facet normal -0 0 1
    outer loop
      vertex 53.5 55 3
      vertex 58.5 10 3
      vertex 56.5 55 3
    endloop
  endfacet
  facet normal 0 0 1
    outer loop
      vertex 53.5 55 3
      vertex 51.5 10 3
      vertex 58.5 10 3
    endloop
  endfacet
  facet normal 0 0 1
    outer loop
      vertex 51.5 10 3
      vertex 53.5 55 3
      vertex 51.5 110 3
    endloop
  endfacet
  facet normal -1 0 0
    outer loop
      vertex 51.5 10 0
      vertex 51.5 110 3
      vertex 51.5 110 0
    endloop
  endfacet
  facet normal -1 -0 0
    outer loop
      vertex 51.5 110 3
      vertex 51.5 10 0
      vertex 51.5 10 3
    endloop
  endfacet
  facet normal -1 0 0
    outer loop
      vertex 56.5 55 0
      vertex 56.5 65 3
      vertex 56.5 65 0
    endloop
  endfacet
  facet normal -1 -0 0
    outer loop
      vertex 56.5 65 3
      vertex 56.5 55 0
      vertex 56.5 55 3
    endloop
  endfacet
  facet normal 1 -0 0
    outer loop
      vertex 53.5 55 3
      vertex 53.5 65 0
      vertex 53.5 65 3
    endloop
  endfacet
  facet normal 1 0 0
    outer loop
      vertex 53.5 65 0
      vertex 53.5 55 3
      vertex 53.5 55 0
    endloop
  endfacet
  facet normal 0 -1 0
    outer loop
      vertex 53.5 65 0
      vertex 56.5 65 3
      vertex 53.5 65 3
    endloop
  endfacet
  facet normal 0 -1 -0
    outer loop
      vertex 56.5 65 3
      vertex 53.5 65 0
      vertex 56.5 65 0
    endloop
  endfacet
  facet normal 0 1 -0
    outer loop
      vertex 56.5 55 0
      vertex 53.5 55 3
      vertex 56.5 55 3
    endloop
  endfacet
  facet normal 0 1 0
    outer loop
      vertex 53.5 55 3
      vertex 56.5 55 0
      vertex 53.5 55 0
    endloop
  endfacet
  facet normal 1 -0 0
    outer loop
      vertex 68.5 10 3
      vertex 68.5 110 0
      vertex 68.5 110 3
    endloop
  endfacet
  facet normal 1 0 0
    outer loop
      vertex 68.5 110 0
      vertex 68.5 10 3
      vertex 68.5 10 0
    endloop
  endfacet
  facet normal 0 0 1
    outer loop
      vertex 68.5 110 3
      vertex 66.5 65 3
      vertex 68.5 10 3
    endloop
  endfacet
  facet normal 0 0 1
    outer loop
      vertex 68.5 110 3
      vertex 63.5 65 3
      vertex 66.5 65 3
    endloop
  endfacet
  facet normal 0 0 1
    outer loop
      vertex 63.5 65 3
      vertex 61.5 110 3
      vertex 63.5 55 3
    endloop
  endfacet
  facet normal -0 0 1
    outer loop
      vertex 61.5 110 3
      vertex 63.5 65 3
      vertex 68.5 110 3
    endloop
  endfacet
  facet normal -0 0 1
    outer loop
      vertex 66.5 55 3
      vertex 68.5 10 3
      vertex 66.5 65 3
    endloop
  endfacet
  facet normal -0 0 1
    outer loop
      vertex 63.5 55 3
      vertex 68.5 10 3
      vertex 66.5 55 3
    endloop
  endfacet
  facet normal 0 0 1
    outer loop
      vertex 63.5 55 3
      vertex 61.5 10 3
      vertex 68.5 10 3
    endloop
  endfacet
  facet normal 0 0 1
    outer loop
      vertex 61.5 10 3
      vertex 63.5 55 3
      vertex 61.5 110 3
    endloop
  endfacet
  facet normal -1 0 0
    outer loop
      vertex 61.5 10 0
      vertex 61.5 110 3
      vertex 61.5 110 0
    endloop
  endfacet
  facet normal -1 -0 0
    outer loop
      vertex 61.5 110 3
      vertex 61.5 10 0
      vertex 61.5 10 3
    endloop
  endfacet
  facet normal -1 0 0
    outer loop
      vertex 66.5 55 0
      vertex 66.5 65 3
      vertex 66.5 65 0
    endloop
  endfacet
  facet normal -1 -0 0
    outer loop
      vertex 66.5 65 3
      vertex 66.5 55 0
      vertex 66.5 55 3
    endloop
  endfacet
  facet normal 1 -0 0
    outer loop
      vertex 63.5 55 3
      vertex 63.5 65 0
      vertex 63.5 65 3
    endloop
  endfacet
  facet normal 1 0 0
    outer loop
      vertex 63.5 65 0
      vertex 63.5 55 3
      vertex 63.5 55 0
    endloop
  endfacet
  facet normal 0 -1 0
    outer loop
      vertex 63.5 65 0
      vertex 66.5 65 3
      vertex 63.5 65 3
    endloop
  endfacet
  facet normal 0 -1 -0
    outer loop
      vertex 66.5 65 3
      vertex 63.5 65 0
      vertex 66.5 65 0
    endloop
  endfacet
  facet normal 0 1 -0
    outer loop
      vertex 66.5 55 0
      vertex 63.5 55 3
      vertex 66.5 55 3
    endloop
  endfacet
  facet normal 0 1 0
    outer loop
      vertex 63.5 55 3
      vertex 66.5 55 0
      vertex 63.5 55 0
    endloop
  endfacet
  facet normal 1 -0 0
    outer loop
      vertex 78.5 10 3
      vertex 78.5 110 0
      vertex 78.5 110 3
    endloop
  endfacet
  facet normal 1 0 0
    outer loop
      vertex 78.5 110 0
      vertex 78.5 10 3
      vertex 78.5 10 0
    endloop
  endfacet
  facet normal 0 0 1
    outer loop
      vertex 78.5 110 3
      vertex 76.5 65 3
      vertex 78.5 10 3
    endloop
  endfacet
  facet normal 0 0 1
    outer loop
      vertex 78.5 110 3
      vertex 73.5 65 3
      vertex 76.5 65 3
    endloop
  endfacet
  facet normal 0 0 1
    outer loop
      vertex 73.5 65 3
      vertex 71.5 110 3
      vertex 73.5 55 3
    endloop
  endfacet
  facet normal -0 0 1
    outer loop
      vertex 71.5 110 3
      vertex 73.5 65 3
      vertex 78.5 110 3
    endloop
  endfacet
  facet normal -0 0 1
    outer loop
      vertex 76.5 55 3
      vertex 78.5 10 3
      vertex 76.5 65 3
    endloop
  endfacet
  facet normal -0 0 1
    outer loop
      vertex 73.5 55 3
      vertex 78.5 10 3
      vertex 76.5 55 3
    endloop
  endfacet
  facet normal 0 0 1
    outer loop
      vertex 73.5 55 3
      vertex 71.5 10 3
      vertex 78.5 10 3
    endloop
  endfacet
  facet normal 0 0 1
    outer loop
      vertex 71.5 10 3
      vertex 73.5 55 3
      vertex 71.5 110 3
    endloop
  endfacet
  facet normal -1 0 0
    outer loop
      vertex 71.5 10 0
      vertex 71.5 110 3
      vertex 71.5 110 0
    endloop
  endfacet
  facet normal -1 -0 0
    outer loop
      vertex 71.5 110 3
      vertex 71.5 10 0
      vertex 71.5 10 3
    endloop
  endfacet
  facet normal -1 0 0
    outer loop
      vertex 76.5 55 0
      vertex 76.5 65 3
      vertex 76.5 65 0
    endloop
  endfacet
  facet normal -1 -0 0
    outer loop
      vertex 76.5 65 3
      vertex 76.5 55 0
      vertex 76.5 55 3
    endloop
  endfacet
  facet normal 1 -0 0
    outer loop
      vertex 73.5 55 3
      vertex 73.5 65 0
      vertex 73.5 65 3
    endloop
  endfacet
  facet normal 1 0 0
    outer loop
      vertex 73.5 65 0
      vertex 73.5 55 3
      vertex 73.5 55 0
    endloop
  endfacet
  facet normal 0 -1 0
    outer loop
      vertex 73.5 65 0
      vertex 76.5 65 3
      vertex 73.5 65 3
    endloop
  endfacet
  facet normal 0 -1 -0
    outer loop
      vertex 76.5 65 3
      vertex 73.5 65 0
      vertex 76.5 65 0
    endloop
  endfacet
  facet normal 0 1 -0
    outer loop
      vertex 76.5 55 0
      vertex 73.5 55 3
      vertex 76.5 55 3
    endloop
  endfacet
  facet normal 0 1 0
    outer loop
      vertex 73.5 55 3
      vertex 76.5 55 0
      vertex 73.5 55 0
    endloop
  endfacet
  facet normal 1 -0 0
    outer loop
      vertex 88.5 10 3
      vertex 88.5 110 0
      vertex 88.5 110 3
    endloop
  endfacet
  facet normal 1 0 0
    outer loop
      vertex 88.5 110 0
      vertex 88.5 10 3
      vertex 88.5 10 0
    endloop
  endfacet
  facet normal 0 0 1
    outer loop
      vertex 88.5 110 3
      vertex 86.5 65 3
      vertex 88.5 10 3
    endloop
  endfacet
  facet normal 0 0 1
    outer loop
      vertex 88.5 110 3
      vertex 83.5 65 3
      vertex 86.5 65 3
    endloop
  endfacet
  facet normal 0 0 1
    outer loop
      vertex 83.5 65 3
      vertex 81.5 110 3
      vertex 83.5 55 3
    endloop
  endfacet
  facet normal -0 0 1
    outer loop
      vertex 81.5 110 3
      vertex 83.5 65 3
      vertex 88.5 110 3
    endloop
  endfacet
  facet normal -0 0 1
    outer loop
      vertex 86.5 55 3
      vertex 88.5 10 3
      vertex 86.5 65 3
    endloop
  endfacet
  facet normal -0 0 1
    outer loop
      vertex 83.5 55 3
      vertex 88.5 10 3
      vertex 86.5 55 3
    endloop
  endfacet
  facet normal 0 0 1
    outer loop
      vertex 83.5 55 3
      vertex 81.5 10 3
      vertex 88.5 10 3
    endloop
  endfacet
  facet normal 0 0 1
    outer loop
      vertex 81.5 10 3
      vertex 83.5 55 3
      vertex 81.5 110 3
    endloop
  endfacet
  facet normal -1 0 0
    outer loop
      vertex 81.5 10 0
      vertex 81.5 110 3
      vertex 81.5 110 0
    endloop
  endfacet
  facet normal -1 -0 0
    outer loop
      vertex 81.5 110 3
      vertex 81.5 10 0
      vertex 81.5 10 3
    endloop
  endfacet
  facet normal -1 0 0
    outer loop
      vertex 86.5 55 0
      vertex 86.5 65 3
      vertex 86.5 65 0
    endloop
  endfacet
  facet normal -1 -0 0
    outer loop
      vertex 86.5 65 3
      vertex 86.5 55 0
      vertex 86.5 55 3
    endloop
  endfacet
  facet normal 1 -0 0
    outer loop
      vertex 83.5 55 3
      vertex 83.5 65 0
      vertex 83.5 65 3
    endloop
  endfacet
  facet normal 1 0 0
    outer loop
      vertex 83.5 65 0
      vertex 83.5 55 3
      vertex 83.5 55 0
    endloop
  endfacet
  facet normal 0 -1 0
    outer loop
      vertex 83.5 65 0
      vertex 86.5 65 3
      vertex 83.5 65 3
    endloop
  endfacet
  facet normal 0 -1 -0
    outer loop
      vertex 86.5 65 3
      vertex 83.5 65 0
      vertex 86.5 65 0
    endloop
  endfacet
  facet normal 0 1 -0
    outer loop
      vertex 86.5 55 0
      vertex 83.5 55 3
      vertex 86.5 55 3
    endloop
  endfacet
  facet normal 0 1 0
    outer loop
      vertex 83.5 55 3
      vertex 86.5 55 0
      vertex 83.5 55 0
    endloop
  endfacet
  facet normal 1 -0 0
    outer loop
      vertex 98.5 10 3
      vertex 98.5 110 0
      vertex 98.5 110 3
    endloop
  endfacet
  facet normal 1 0 0
    outer loop
      vertex 98.5 110 0
      vertex 98.5 10 3
      vertex 98.5 10 0
    endloop
  endfacet
  facet normal 0 0 1
    outer loop
      vertex 98.5 110 3
      vertex 96.5 65 3
      vertex 98.5 10 3
    endloop
  endfacet
  facet normal 0 0 1
    outer loop
      vertex 98.5 110 3
      vertex 93.5 65 3
      vertex 96.5 65 3
    endloop
  endfacet
  facet normal 0 0 1
    outer loop
      vertex 93.5 65 3
      vertex 91.5 110 3
      vertex 93.5 55 3
    endloop
  endfacet
  facet normal -0 0 1
    outer loop
      vertex 91.5 110 3
      vertex 93.5 65 3
      vertex 98.5 110 3
    endloop
  endfacet
  facet normal -0 0 1
    outer loop
      vertex 96.5 55 3
      vertex 98.5 10 3
      vertex 96.5 65 3
    endloop
  endfacet
  facet normal -0 0 1
    outer loop
      vertex 93.5 55 3
      vertex 98.5 10 3
      vertex 96.5 55 3
    endloop
  endfacet
  facet normal 0 0 1
    outer loop
      vertex 93.5 55 3
      vertex 91.5 10 3
      vertex 98.5 10 3
    endloop
  endfacet
  facet normal 0 0 1
    outer loop
      vertex 91.5 10 3
      vertex 93.5 55 3
      vertex 91.5 110 3
    endloop
  endfacet
  facet normal -1 0 0
    outer loop
      vertex 91.5 10 0
      vertex 91.5 110 3
      vertex 91.5 110 0
    endloop
  endfacet
  facet normal -1 -0 0
    outer loop
      vertex 91.5 110 3
      vertex 91.5 10 0
      vertex 91.5 10 3
    endloop
  endfacet
  facet normal -1 0 0
    outer loop
      vertex 96.5 55 0
      vertex 96.5 65 3
      vertex 96.5 65 0
    endloop
  endfacet
  facet normal -1 -0 0
    outer loop
      vertex 96.5 65 3
      vertex 96.5 55 0
      vertex 96.5 55 3
    endloop
  endfacet
  facet normal 1 -0 0
    outer loop
      vertex 93.5 55 3
      vertex 93.5 65 0
      vertex 93.5 65 3
    endloop
  endfacet
  facet normal 1 0 0
    outer loop
      vertex 93.5 65 0
      vertex 93.5 55 3
      vertex 93.5 55 0
    endloop
  endfacet
  facet normal 0 -1 0
    outer loop
      vertex 93.5 65 0
      vertex 96.5 65 3
      vertex 93.5 65 3
    endloop
  endfacet
  facet normal 0 -1 -0
    outer loop
      vertex 96.5 65 3
      vertex 93.5 65 0
      vertex 96.5 65 0
    endloop
  endfacet
  facet normal 0 1 -0
    outer loop
      vertex 96.5 55 0
      vertex 93.5 55 3
      vertex 96.5 55 3
    endloop
  endfacet
  facet normal 0 1 0
    outer loop
      vertex 93.5 55 3
      vertex 96.5 55 0
      vertex 93.5 55 0
    endloop
  endfacet
  facet normal 1 -0 0
    outer loop
      vertex 100 0 5
      vertex 100 10 0
      vertex 100 10 5
    endloop
  endfacet
  facet normal 1 0 0
    outer loop
      vertex 100 10 0
      vertex 100 0 5
      vertex 100 0 0
    endloop
  endfacet
  facet normal -1 0 0
    outer loop
      vertex 0 0 0
      vertex 0 10 5
      vertex 0 10 0
    endloop
  endfacet
  facet normal -1 -0 0
    outer loop
      vertex 0 10 5
      vertex 0 0 0
      vertex 0 0 5
    endloop
  endfacet
  facet normal 0 1 -0
    outer loop
      vertex 11.5 10 0
      vertex 8.5 10 3
      vertex 11.5 10 3
    endloop
  endfacet
  facet normal 0 1 0
    outer loop
      vertex 8.5 10 3
      vertex 11.5 10 0
      vertex 8.5 10 0
    endloop
  endfacet
  facet normal 0 1 -0
    outer loop
      vertex 21.5 10 0
      vertex 18.5 10 3
      vertex 21.5 10 3
    endloop
  endfacet
  facet normal 0 1 0
    outer loop
      vertex 18.5 10 3
      vertex 21.5 10 0
      vertex 18.5 10 0
    endloop
  endfacet
  facet normal 0 1 -0
    outer loop
      vertex 31.5 10 0
      vertex 28.5 10 3
      vertex 31.5 10 3
    endloop
  endfacet
  facet normal 0 1 0
    outer loop
      vertex 28.5 10 3
      vertex 31.5 10 0
      vertex 28.5 10 0
    endloop
  endfacet
  facet normal 0 1 -0
    outer loop
      vertex 41.5 10 0
      vertex 38.5 10 3
      vertex 41.5 10 3
    endloop
  endfacet
  facet normal 0 1 0
    outer loop
      vertex 38.5 10 3
      vertex 41.5 10 0
      vertex 38.5 10 0
    endloop
  endfacet
  facet normal 0 1 -0
    outer loop
      vertex 51.5 10 0
      vertex 48.5 10 3
      vertex 51.5 10 3
    endloop
  endfacet
  facet normal 0 1 0
    outer loop
      vertex 48.5 10 3
      vertex 51.5 10 0
      vertex 48.5 10 0
    endloop
  endfacet
  facet normal 0 1 -0
    outer loop
      vertex 61.5 10 0
      vertex 58.5 10 3
      vertex 61.5 10 3
    endloop
  endfacet
  facet normal 0 1 0
    outer loop
      vertex 58.5 10 3
      vertex 61.5 10 0
      vertex 58.5 10 0
    endloop
  endfacet
  facet normal 0 1 -0
    outer loop
      vertex 71.5 10 0
      vertex 68.5 10 3
      vertex 71.5 10 3
    endloop
  endfacet
  facet normal 0 1 0
    outer loop
      vertex 68.5 10 3
      vertex 71.5 10 0
      vertex 68.5 10 0
    endloop
  endfacet
  facet normal 0 1 -0
    outer loop
      vertex 81.5 10 0
      vertex 78.5 10 3
      vertex 81.5 10 3
    endloop
  endfacet
  facet normal 0 1 0
    outer loop
      vertex 78.5 10 3
      vertex 81.5 10 0
      vertex 78.5 10 0
    endloop
  endfacet
  facet normal 0 1 -0
    outer loop
      vertex 91.5 10 0
      vertex 88.5 10 3
      vertex 91.5 10 3
    endloop
  endfacet
  facet normal 0 1 0
    outer loop
      vertex 88.5 10 3
      vertex 91.5 10 0
      vertex 88.5 10 0
    endloop
  endfacet
  facet normal 0 1 0
    outer loop
      vertex 91.5 10 3
      vertex 100 10 5
      vertex 98.5 10 3
    endloop
  endfacet
  facet normal 0 1 -0
    outer loop
      vertex 100 10 0
      vertex 98.5 10 3
      vertex 100 10 5
    endloop
  endfacet
  facet normal 0 1 0
    outer loop
      vertex 98.5 10 3
      vertex 100 10 0
      vertex 98.5 10 0
    endloop
  endfacet
  facet normal 0 1 0
    outer loop
      vertex 88.5 10 3
      vertex 100 10 5
      vertex 91.5 10 3
    endloop
  endfacet
  facet normal 0 1 0
    outer loop
      vertex 81.5 10 3
      vertex 100 10 5
      vertex 88.5 10 3
    endloop
  endfacet
  facet normal 0 1 0
    outer loop
      vertex 78.5 10 3
      vertex 100 10 5
      vertex 81.5 10 3
    endloop
  endfacet
  facet normal 0 1 0
    outer loop
      vertex 71.5 10 3
      vertex 100 10 5
      vertex 78.5 10 3
    endloop
  endfacet
  facet normal 0 1 0
    outer loop
      vertex 68.5 10 3
      vertex 100 10 5
      vertex 71.5 10 3
    endloop
  endfacet
  facet normal 0 1 0
    outer loop
      vertex 61.5 10 3
      vertex 100 10 5
      vertex 68.5 10 3
    endloop
  endfacet
  facet normal 0 1 0
    outer loop
      vertex 58.5 10 3
      vertex 100 10 5
      vertex 61.5 10 3
    endloop
  endfacet
  facet normal 0 1 0
    outer loop
      vertex 100 10 5
      vertex 58.5 10 3
      vertex 0 10 5
    endloop
  endfacet
  facet normal 0 1 -0
    outer loop
      vertex 51.5 10 3
      vertex 0 10 5
      vertex 58.5 10 3
    endloop
  endfacet
  facet normal 0 1 -0
    outer loop
      vertex 48.5 10 3
      vertex 0 10 5
      vertex 51.5 10 3
    endloop
  endfacet
  facet normal 0 1 -0
    outer loop
      vertex 41.5 10 3
      vertex 0 10 5
      vertex 48.5 10 3
    endloop
  endfacet
  facet normal 0 1 -0
    outer loop
      vertex 38.5 10 3
      vertex 0 10 5
      vertex 41.5 10 3
    endloop
  endfacet
  facet normal 0 1 -0
    outer loop
      vertex 31.5 10 3
      vertex 0 10 5
      vertex 38.5 10 3
    endloop
  endfacet
  facet normal 0 1 -0
    outer loop
      vertex 28.5 10 3
      vertex 0 10 5
      vertex 31.5 10 3
    endloop
  endfacet
  facet normal 0 1 -0
    outer loop
      vertex 21.5 10 3
      vertex 0 10 5
      vertex 28.5 10 3
    endloop
  endfacet
  facet normal 0 1 -0
    outer loop
      vertex 18.5 10 3
      vertex 0 10 5
      vertex 21.5 10 3
    endloop
  endfacet
  facet normal 0 1 -0
    outer loop
      vertex 11.5 10 3
      vertex 0 10 5
      vertex 18.5 10 3
    endloop
  endfacet
  facet normal 0 1 -0
    outer loop
      vertex 8.5 10 3
      vertex 0 10 5
      vertex 11.5 10 3
    endloop
  endfacet
  facet normal 0 1 -0
    outer loop
      vertex 1.5 10 3
      vertex 0 10 5
      vertex 8.5 10 3
    endloop
  endfacet
  facet normal 0 1 0
    outer loop
      vertex 0 10 0
      vertex 1.5 10 3
      vertex 1.5 10 0
    endloop
  endfacet
  facet normal 0 1 0
    outer loop
      vertex 1.5 10 3
      vertex 0 10 0
      vertex 0 10 5
    endloop
  endfacet
  facet normal -0 0 1
    outer loop
      vertex 0 10 5
      vertex 100 0 5
      vertex 100 10 5
    endloop
  endfacet
  facet normal 0 0 1
    outer loop
      vertex 100 0 5
      vertex 0 10 5
      vertex 0 0 5
    endloop
  endfacet
  facet normal 1 -0 0
    outer loop
      vertex 100 110 5
      vertex 100 120 0
      vertex 100 120 5
    endloop
  endfacet
  facet normal 1 0 0
    outer loop
      vertex 100 120 0
      vertex 100 110 5
      vertex 100 110 0
    endloop
  endfacet
  facet normal -0 0 1
    outer loop
      vertex 0 120 5
      vertex 100 110 5
      vertex 100 120 5
    endloop
  endfacet
  facet normal 0 0 1
    outer loop
      vertex 100 110 5
      vertex 0 120 5
      vertex 0 110 5
    endloop
  endfacet
  facet normal -1 0 0
    outer loop
      vertex 0 110 0
      vertex 0 120 5
      vertex 0 120 0
    endloop
  endfacet
  facet normal -1 -0 0
    outer loop
      vertex 0 120 5
      vertex 0 110 0
      vertex 0 110 5
    endloop
  endfacet
  facet normal 0 -1 0
    outer loop
      vertex 88.5 110 0
      vertex 91.5 110 3
      vertex 88.5 110 3
    endloop
  endfacet
  facet normal 0 -1 -0
    outer loop
      vertex 91.5 110 3
      vertex 88.5 110 0
      vertex 91.5 110 0
    endloop
  endfacet
  facet normal 0 -1 0
    outer loop
      vertex 78.5 110 0
      vertex 81.5 110 3
      vertex 78.5 110 3
    endloop
  endfacet
  facet normal 0 -1 -0
    outer loop
      vertex 81.5 110 3
      vertex 78.5 110 0
      vertex 81.5 110 0
    endloop
  endfacet
  facet normal 0 -1 0
    outer loop
      vertex 68.5 110 0
      vertex 71.5 110 3
      vertex 68.5 110 3
    endloop
  endfacet
  facet normal 0 -1 -0
    outer loop
      vertex 71.5 110 3
      vertex 68.5 110 0
      vertex 71.5 110 0
    endloop
  endfacet
  facet normal 0 -1 0
    outer loop
      vertex 58.5 110 0
      vertex 61.5 110 3
      vertex 58.5 110 3
    endloop
  endfacet
  facet normal 0 -1 -0
    outer loop
      vertex 61.5 110 3
      vertex 58.5 110 0
      vertex 61.5 110 0
    endloop
  endfacet
  facet normal 0 -1 0
    outer loop
      vertex 48.5 110 0
      vertex 51.5 110 3
      vertex 48.5 110 3
    endloop
  endfacet
  facet normal 0 -1 -0
    outer loop
      vertex 51.5 110 3
      vertex 48.5 110 0
      vertex 51.5 110 0
    endloop
  endfacet
  facet normal 0 -1 0
    outer loop
      vertex 38.5 110 0
      vertex 41.5 110 3
      vertex 38.5 110 3
    endloop
  endfacet
  facet normal 0 -1 -0
    outer loop
      vertex 41.5 110 3
      vertex 38.5 110 0
      vertex 41.5 110 0
    endloop
  endfacet
  facet normal 0 -1 0
    outer loop
      vertex 28.5 110 0
      vertex 31.5 110 3
      vertex 28.5 110 3
    endloop
  endfacet
  facet normal 0 -1 -0
    outer loop
      vertex 31.5 110 3
      vertex 28.5 110 0
      vertex 31.5 110 0
    endloop
  endfacet
  facet normal 0 -1 0
    outer loop
      vertex 18.5 110 0
      vertex 21.5 110 3
      vertex 18.5 110 3
    endloop
  endfacet
  facet normal 0 -1 -0
    outer loop
      vertex 21.5 110 3
      vertex 18.5 110 0
      vertex 21.5 110 0
    endloop
  endfacet
  facet normal 0 -1 0
    outer loop
      vertex 8.5 110 0
      vertex 11.5 110 3
      vertex 8.5 110 3
    endloop
  endfacet
  facet normal 0 -1 -0
    outer loop
      vertex 11.5 110 3
      vertex 8.5 110 0
      vertex 11.5 110 0
    endloop
  endfacet
  facet normal 0 -1 0
    outer loop
      vertex 8.5 110 3
      vertex 0 110 5
      vertex 1.5 110 3
    endloop
  endfacet
  facet normal 0 -1 0
    outer loop
      vertex 0 110 0
      vertex 1.5 110 3
      vertex 0 110 5
    endloop
  endfacet
  facet normal 0 -1 -0
    outer loop
      vertex 1.5 110 3
      vertex 0 110 0
      vertex 1.5 110 0
    endloop
  endfacet
  facet normal 0 -1 0
    outer loop
      vertex 11.5 110 3
      vertex 0 110 5
      vertex 8.5 110 3
    endloop
  endfacet
  facet normal 0 -1 0
    outer loop
      vertex 18.5 110 3
      vertex 0 110 5
      vertex 11.5 110 3
    endloop
  endfacet
  facet normal 0 -1 0
    outer loop
      vertex 21.5 110 3
      vertex 0 110 5
      vertex 18.5 110 3
    endloop
  endfacet
  facet normal 0 -1 0
    outer loop
      vertex 28.5 110 3
      vertex 0 110 5
      vertex 21.5 110 3
    endloop
  endfacet
  facet normal 0 -1 0
    outer loop
      vertex 31.5 110 3
      vertex 0 110 5
      vertex 28.5 110 3
    endloop
  endfacet
  facet normal 0 -1 0
    outer loop
      vertex 38.5 110 3
      vertex 0 110 5
      vertex 31.5 110 3
    endloop
  endfacet
  facet normal 0 -1 0
    outer loop
      vertex 41.5 110 3
      vertex 0 110 5
      vertex 38.5 110 3
    endloop
  endfacet
  facet normal 0 -1 0
    outer loop
      vertex 0 110 5
      vertex 41.5 110 3
      vertex 100 110 5
    endloop
  endfacet
  facet normal 0 -1 0
    outer loop
      vertex 48.5 110 3
      vertex 100 110 5
      vertex 41.5 110 3
    endloop
  endfacet
  facet normal 0 -1 0
    outer loop
      vertex 51.5 110 3
      vertex 100 110 5
      vertex 48.5 110 3
    endloop
  endfacet
  facet normal 0 -1 0
    outer loop
      vertex 58.5 110 3
      vertex 100 110 5
      vertex 51.5 110 3
    endloop
  endfacet
  facet normal 0 -1 0
    outer loop
      vertex 61.5 110 3
      vertex 100 110 5
      vertex 58.5 110 3
    endloop
  endfacet
  facet normal 0 -1 0
    outer loop
      vertex 68.5 110 3
      vertex 100 110 5
      vertex 61.5 110 3
    endloop
  endfacet
  facet normal 0 -1 0
    outer loop
      vertex 71.5 110 3
      vertex 100 110 5
      vertex 68.5 110 3
    endloop
  endfacet
  facet normal 0 -1 0
    outer loop
      vertex 78.5 110 3
      vertex 100 110 5
      vertex 71.5 110 3
    endloop
  endfacet
  facet normal 0 -1 0
    outer loop
      vertex 81.5 110 3
      vertex 100 110 5
      vertex 78.5 110 3
    endloop
  endfacet
  facet normal 0 -1 0
    outer loop
      vertex 88.5 110 3
      vertex 100 110 5
      vertex 81.5 110 3
    endloop
  endfacet
  facet normal 0 -1 0
    outer loop
      vertex 91.5 110 3
      vertex 100 110 5
      vertex 88.5 110 3
    endloop
  endfacet
  facet normal 0 -1 0
    outer loop
      vertex 98.5 110 3
      vertex 100 110 5
      vertex 91.5 110 3
    endloop
  endfacet
  facet normal 0 -1 0
    outer loop
      vertex 100 110 0
      vertex 98.5 110 3
      vertex 98.5 110 0
    endloop
  endfacet
  facet normal 0 -1 0
    outer loop
      vertex 98.5 110 3
      vertex 100 110 0
      vertex 100 110 5
    endloop
  endfacet
endsolid OpenSCAD_Model
